<svg width="9" height="18" viewBox="0 0 9 18" fill="none" xmlns="http://www.w3.org/2000/svg">
<path fill-rule="evenodd" clip-rule="evenodd" d="M2.77619 18C2.57179 17.9118 2.50829 17.7452 2.50874 17.5137C2.51317 15.1411 2.51146 12.7684 2.51146 10.3957V10.164H2.32516C1.69644 10.164 1.06776 10.1646 0.439043 10.1638C0.121147 10.1634 0.00199737 10.0404 0.0013876 9.70365C-0.000360423 8.77801 -0.000604333 7.85233 0.00150955 6.9267C0.00224128 6.60193 0.126513 6.47247 0.430628 6.47181C1.05935 6.47045 1.68802 6.47137 2.31674 6.47137H2.51146C2.51146 6.39285 2.51126 6.33032 2.51146 6.26779C2.51378 5.55312 2.49703 4.83757 2.52301 4.12387C2.56086 3.08491 2.84119 2.133 3.49145 1.33818C4.08432 0.613531 4.83901 0.180485 5.71583 0.0845156C6.51077 -0.0025332 7.31645 0.0245789 8.11741 0.00335501C8.28534 -0.00108312 8.45356 -0.00152254 8.62141 0.0044975C8.86284 0.013154 8.99528 0.14933 8.99662 0.410564C9.00109 1.30105 9.00117 2.19153 8.99658 3.08201C8.99516 3.35273 8.86255 3.48047 8.60494 3.48447C8.03614 3.4933 7.4669 3.48891 6.89867 3.5129C6.59947 3.52551 6.30942 3.61946 6.16284 3.93931C6.09043 4.09728 6.0395 4.2836 6.03564 4.45853C6.02108 5.1199 6.02978 5.78184 6.02978 6.47137H6.2015C6.94944 6.47137 7.69739 6.47098 8.44534 6.47159C8.78027 6.47186 8.89605 6.59582 8.89621 6.95601C8.89666 7.86996 8.8965 8.78386 8.89528 9.69776C8.89483 10.0388 8.77897 10.1634 8.46339 10.1637C7.71548 10.1646 6.96753 10.164 6.21963 10.164H6.02385V10.3844C6.02385 12.7512 6.02255 15.118 6.02588 17.4848C6.02625 17.7151 5.97332 17.8978 5.76815 18H2.77619Z" fill="white"/>
</svg>
