<svg width="17" height="17" viewBox="0 0 17 17" fill="none" xmlns="http://www.w3.org/2000/svg">
<g clip-path="url(#clip0_231_4)">
<path d="M8.51201 16.9999C7.19403 16.9674 5.87458 16.9733 4.55955 16.8949C2.02333 16.7439 0.267258 14.9909 0.116548 12.4551C-0.0408115 9.79932 -0.0371176 7.13913 0.117287 4.48339C0.23623 2.43886 1.42344 0.871614 3.28221 0.315159C3.87545 0.137567 4.51153 0.0347118 5.13063 0.0258322C7.38907 -0.00820633 9.64825 -0.00746636 11.9067 0.0250922C12.525 0.0339718 13.1641 0.130167 13.7551 0.312939C15.5747 0.877534 16.5765 2.1821 16.8691 4.03645C16.9651 4.64397 16.9902 5.26776 16.9932 5.88489C17.0043 7.8236 17.0079 9.76306 16.974 11.701C16.9636 12.3137 16.8957 12.9434 16.7346 13.5324C16.2093 15.4504 14.8965 16.5315 12.9594 16.8327C12.2436 16.9437 11.5085 16.9444 10.7815 16.9652C10.0258 16.9859 9.26926 16.9696 8.51349 16.9696C8.51275 16.98 8.51201 16.9903 8.51201 16.9999ZM15.4395 8.47995C15.4742 8.47921 15.5097 8.47848 15.5444 8.47848C15.4912 7.09622 15.4853 5.70952 15.3708 4.3317C15.2548 2.94648 14.386 2.00302 13.0673 1.68928C12.7378 1.61084 12.3943 1.55904 12.0559 1.55534C9.99104 1.52945 7.92616 1.51391 5.86202 1.51169C5.36556 1.51095 4.86688 1.55312 4.37338 1.61306C2.99408 1.78103 2.04919 2.61572 1.73964 3.93434C1.6665 4.2466 1.61331 4.57219 1.60962 4.89186C1.5845 6.9867 1.56824 9.08229 1.56603 11.1771C1.56529 11.6648 1.60075 12.1569 1.66872 12.6393C1.85046 13.9313 2.52053 14.8437 3.806 15.2203C4.13919 15.318 4.49306 15.3912 4.83807 15.3935C7.29894 15.4075 9.7598 15.4223 12.2199 15.3898C13.1648 15.3772 14.0336 15.0768 14.6778 14.3153C15.2179 13.6767 15.4129 12.9109 15.4321 12.1065C15.4602 10.8989 15.4395 9.68906 15.4395 8.47995Z" fill="white"/>
<path d="M8.52979 12.8481C6.12581 12.8511 4.16214 10.8902 4.15918 8.48603C4.15697 6.07892 6.11399 4.11283 8.51575 4.10987C10.9197 4.10691 12.8834 6.06782 12.8864 8.47271C12.8886 10.8791 10.9308 12.8459 8.52979 12.8481ZM5.68771 8.46827C5.6855 10.057 6.94216 11.3194 8.52536 11.3179C10.0975 11.3164 11.349 10.0666 11.3571 8.49047C11.3652 6.90842 10.1019 5.63938 8.51945 5.64086C6.94881 5.64234 5.68993 6.8988 5.68771 8.46827Z" fill="white"/>
<path d="M14.0631 3.93952C14.0646 4.50929 13.614 4.96363 13.0495 4.96215C12.4851 4.95993 12.03 4.49967 12.0352 3.93508C12.0404 3.37936 12.4844 2.93538 13.0399 2.93094C13.6117 2.9265 14.0609 3.369 14.0631 3.93952Z" fill="white"/>
</g>
<defs>
<clipPath id="clip0_231_4">
<rect width="17" height="17" fill="white"/>
</clipPath>
</defs>
</svg>
