<svg width="19" height="13" viewBox="0 0 19 13" fill="none" xmlns="http://www.w3.org/2000/svg">
<path d="M9.70953 0.00224756C10.8937 0.000193847 12.0779 0.0145698 13.2643 0.0576978C13.9575 0.0823423 14.6508 0.113148 15.344 0.168598C15.8181 0.207619 16.2922 0.240478 16.7558 0.343164C17.7335 0.55675 18.353 1.14206 18.6164 2.0806C18.7386 2.51804 18.7913 2.96986 18.8418 3.41962C18.9282 4.18977 18.9641 4.96196 18.9893 5.73416C19.0104 6.39545 18.9999 7.05675 18.9725 7.71804C18.9388 8.51694 18.8903 9.31378 18.7744 10.1045C18.7281 10.431 18.6796 10.7596 18.5679 11.0738C18.2645 11.9343 17.6534 12.4642 16.741 12.6552C16.1995 12.7681 15.6453 12.8071 15.0933 12.8421C12.6321 13.0022 10.1689 13.0207 7.70354 12.9879C6.55094 12.9714 5.39623 12.9365 4.24574 12.8667C3.63678 12.8297 3.02782 12.7825 2.42307 12.688C1.61393 12.5648 0.996544 12.1705 0.594082 11.4681C0.421297 11.1662 0.347548 10.8315 0.286441 10.4967C0.187406 9.95454 0.13262 9.4103 0.0904776 8.86196C0.0230494 7.9727 -0.00855759 7.08345 -0.000129068 6.19419C0.0104066 5.22278 0.0588706 4.25138 0.168441 3.28613C0.212691 2.88771 0.269584 2.48929 0.377047 2.09909C0.650974 1.10509 1.31472 0.515676 2.34721 0.322627C2.92668 0.21378 3.51667 0.176813 4.10456 0.139846C5.42784 0.0556441 6.75323 0.020731 8.08072 0.00635498C8.62225 -0.00185986 9.16589 0.00224756 9.70953 0.00224756ZM7.61715 9.27065C9.2565 8.34648 10.8811 7.42847 12.512 6.50635C12.4509 6.43858 12.3856 6.41394 12.3287 6.38108C10.8158 5.52673 9.30496 4.67239 7.78993 3.81804C7.73726 3.78929 7.68036 3.72357 7.62558 3.75027C7.56869 3.77902 7.59819 3.86117 7.59819 3.91868C7.59608 5.63969 7.59608 7.35864 7.59819 9.07965C7.59819 9.1351 7.58765 9.19055 7.61715 9.27065Z" fill="white"/>
</svg>
